# xmcd
#
# Track frame offsets:
#	150
#	14361
#	33018
#	53781
#	73302
#	95229
#	107829
#	126047
#	142549
#	161852
#
# Disc length: 2465 seconds
#
# Revision: 6
# Processed by: cddbd v1.5.2PL0 Copyright (c) Steve Scherf et al.
# Submitted via: audiograbber 1.83.01
#
DISCID=85099f0a
DTITLE=Anita Cochran - Back To You
DYEAR=1997
DGENRE=Country
TTITLE0=I Could Love A Man Like That
TTITLE1=Will You Be Here
TTITLE2=Daddy Can You See Me
TTITLE3=She Wants To Ride
TTITLE4=What If I Said [duet with Steve Wariner]
TTITLE5=You're The Break
TTITLE6=One Of Those Days
TTITLE7=Girls Like Fast Cars
TTITLE8=Wrong Side Of Town
TTITLE9=Back To You
EXTD=
EXTT0=
EXTT1=
EXTT2=
EXTT3=
EXTT4=
EXTT5=
EXTT6=
EXTT7=
EXTT8=
EXTT9=
PLAYORDER=
